<?xml version="1.0" encoding="UTF-8" standalone="no"?>
<!-- Created with Inkscape (http://www.inkscape.org/) -->

<svg
   xmlns:dc="http://purl.org/dc/elements/1.1/"
   xmlns:cc="http://creativecommons.org/ns#"
   xmlns:rdf="http://www.w3.org/1999/02/22-rdf-syntax-ns#"
   xmlns:svg="http://www.w3.org/2000/svg"
   xmlns="http://www.w3.org/2000/svg"
   xmlns:sodipodi="http://sodipodi.sourceforge.net/DTD/sodipodi-0.dtd"
   xmlns:inkscape="http://www.inkscape.org/namespaces/inkscape"
   id="svg2"
   version="1.1"
   inkscape:version="0.48.3.1 r9886"
   width="379.975"
   height="193.48125"
   xml:space="preserve"
   sodipodi:docname="UJM-LOGOS-CMJN-01.ai"><metadata
     id="metadata8"><rdf:RDF><cc:Work
         rdf:about=""><dc:format>image/svg+xml</dc:format><dc:type
           rdf:resource="http://purl.org/dc/dcmitype/StillImage" /><dc:title></dc:title></cc:Work></rdf:RDF></metadata><defs
     id="defs6"><clipPath
       clipPathUnits="userSpaceOnUse"
       id="clipPath20"><path
         d="m 0,154.785 303.98,0 L 303.98,0 0,0 0,154.785 z"
         id="path22" /></clipPath></defs><sodipodi:namedview
     pagecolor="#ffffff"
     bordercolor="#666666"
     borderopacity="1"
     objecttolerance="10"
     gridtolerance="10"
     guidetolerance="10"
     inkscape:pageopacity="0"
     inkscape:pageshadow="2"
     inkscape:window-width="640"
     inkscape:window-height="480"
     id="namedview4"
     showgrid="false"
     inkscape:zoom="1.1816567"
     inkscape:cx="189.9875"
     inkscape:cy="96.740623"
     inkscape:window-x="738"
     inkscape:window-y="361"
     inkscape:window-maximized="0"
     inkscape:current-layer="g10" /><g
     id="g10"
     inkscape:groupmode="layer"
     inkscape:label="UJM-LOGOS-CMJN-01"
     transform="matrix(1.25,0,0,-1.25,0,193.48125)"><g
       id="g12"
       transform="translate(74.0955,110.6344)"><path
         d="m 0,0 0,14.668 -44.139,0.077 0,-14.741 11.812,-7.451 -11.812,-7.291 0,-14.741 44.139,-0.077 0,14.669 -25.445,0 -0.084,0.144 10.788,7.301 -10.784,7.295 L -25.439,0 0,0 z"
         style="fill:#ea5822;fill-opacity:1;fill-rule:nonzero;stroke:none"
         id="path14" /></g><g
       id="g16"><g
         id="g18"
         clip-path="url(#clipPath20)"><g
           id="g24"
           transform="translate(88.704,125.3024)"><path
             d="m 0,0 0,-73.319 c 0,-20.248 -16.473,-36.72 -36.721,-36.72 -20.247,0 -36.72,16.472 -36.72,36.72 l 0,73.319 -15.263,0 0,-73.319 c 0,-28.664 23.32,-51.984 51.983,-51.984 28.664,0 51.984,23.32 51.984,51.984 L 15.263,0 0,0 z"
             style="fill:#ea5822;fill-opacity:1;fill-rule:nonzero;stroke:none"
             id="path26" /></g><path
           d="m 103.967,154.785 -103.967,0 0,-14.741 103.967,0 0,14.741 z"
           style="fill:#2b2b2a;fill-opacity:1;fill-rule:nonzero;stroke:none"
           id="path28" /><g
           id="g30"
           transform="translate(51.9833,73.7073)"><path
             d="m 0,0 -22.112,0 0,-14.742 22.112,0 c 4.071,0 7.371,-3.3 7.371,-7.37 0,-4.071 -3.3,-7.371 -7.371,-7.371 l -7.371,0 0,-14.742 7.371,0 c 12.212,0 22.112,9.9 22.112,22.113 C 22.112,-9.9 12.212,0 0,0"
             style="fill:#ea5822;fill-opacity:1;fill-rule:nonzero;stroke:none"
             id="path32" /></g><g
           id="g34"
           transform="translate(126.1636,109.0326)"><path
             d="m 0,0 0,16.139 6.205,0 0,-16.172 c 0,-0.759 0.33,-1.188 1.188,-1.188 0.858,0 1.188,0.429 1.188,1.155 l 0,16.205 6.205,0 0,-16.139 c 0,-3.696 -2.211,-6.238 -7.393,-6.238 C 2.211,-6.238 0,-3.696 0,0"
             style="fill:#ea5822;fill-opacity:1;fill-rule:nonzero;stroke:none"
             id="path36" /></g><g
           id="g38"
           transform="translate(144.5112,125.1717)"><path
             d="m 0,0 6.073,0 3.828,-9.043 0,9.043 6.007,0 0,-21.981 -6.072,0 -3.829,9.043 0,-9.043 -6.007,0 L 0,0 z"
             style="fill:#ea5822;fill-opacity:1;fill-rule:nonzero;stroke:none"
             id="path40" /></g><path
           d="m 164.113,125.172 6.205,0 0,-21.981 -6.205,0 0,21.981 z"
           style="fill:#ea5822;fill-opacity:1;fill-rule:nonzero;stroke:none"
           id="path42" /><g
           id="g44"
           transform="translate(185.0366,103.1908)"><path
             d="m 0,0 -8.119,0 -3.994,21.981 6.733,0 1.32,-14.324 1.321,14.324 6.732,0 L 0,0 z"
             style="fill:#ea5822;fill-opacity:1;fill-rule:nonzero;stroke:none"
             id="path46" /></g><g
           id="g48"
           transform="translate(191.5689,125.1717)"><path
             d="m 0,0 12.014,0 0,-5.017 -5.81,0 0,-3.399 5.248,0 0,-5.017 -5.248,0 0,-3.531 5.842,0 0,-5.017 L 0,-21.981 0,0 z"
             style="fill:#ea5822;fill-opacity:1;fill-rule:nonzero;stroke:none"
             id="path50" /></g><g
           id="g52"
           transform="translate(214.3394,114.9735)"><path
             d="m 0,0 c 0.692,0 1.022,0.33 1.022,1.023 l 0,3.168 C 1.022,4.885 0.692,5.215 0,5.215 l -1.354,0 L -1.354,0 0,0 z m -0.858,-4.753 -0.496,0 0,-7.03 -6.138,0 0,21.981 8.911,0 c 4.323,0 5.808,-2.013 5.808,-5.544 l 0,-4.027 c 0,-2.112 -0.626,-3.499 -2.045,-4.357 l 2.772,-8.053 -6.502,0 -2.31,7.03 z"
             style="fill:#ea5822;fill-opacity:1;fill-rule:nonzero;stroke:none"
             id="path54" /></g><g
           id="g56"
           transform="translate(224.7652,103.4549)"><path
             d="M 0,0 0.693,5.38 C 1.849,5.017 3.399,4.786 4.456,4.786 c 1.518,0 1.981,0.297 1.981,1.287 0,0.99 -0.199,1.155 -1.816,1.485 -4.456,0.858 -4.918,2.805 -4.918,7.294 0,5.347 1.882,7.261 6.899,7.261 1.616,0 3.761,-0.297 4.917,-0.66 l -0.594,-5.248 c -0.76,0.198 -2.112,0.462 -3.268,0.462 -1.386,0 -1.749,-0.231 -1.749,-1.155 0,-0.924 0.066,-1.089 2.244,-1.65 3.433,-0.891 4.489,-1.848 4.489,-7.129 C 12.641,1.947 10.76,-0.66 5.645,-0.66 4.159,-0.66 1.849,-0.429 0,0"
             style="fill:#ea5822;fill-opacity:1;fill-rule:nonzero;stroke:none"
             id="path58" /></g><path
           d="m 240.374,125.172 6.205,0 0,-21.981 -6.205,0 0,21.981 z"
           style="fill:#ea5822;fill-opacity:1;fill-rule:nonzero;stroke:none"
           id="path60" /><g
           id="g62"
           transform="translate(252.98,120.0892)"><path
             d="m 0,0 -3.598,0 0,5.083 13.401,0 0,-5.083 -3.598,0 0,-16.898 -6.205,0 L 0,0 z"
             style="fill:#ea5822;fill-opacity:1;fill-rule:nonzero;stroke:none"
             id="path64" /></g><g
           id="g66"
           transform="translate(268.4907,126.1293)"><path
             d="M 0,0 1.881,5.379 8.416,4.257 5.809,0 0,0 z m -2.971,-0.958 12.014,0 0,-5.016 -5.809,0 0,-3.4 5.248,0 0,-5.016 -5.248,0 0,-3.532 5.842,0 0,-5.016 -12.047,0 0,21.98 z"
             style="fill:#ea5822;fill-opacity:1;fill-rule:nonzero;stroke:none"
             id="path68" /></g><g
           id="g70"
           transform="translate(124.3257,70.6254)"><path
             d="m 0,0 c 1.023,0.99 1.782,1.782 1.782,3.399 l 0,21.585 6.204,0 0,-21.684 c 0,-3.597 -1.484,-5.05 -4.587,-7.129 L 0,0 z"
             style="fill:#ea5822;fill-opacity:1;fill-rule:nonzero;stroke:none"
             id="path72" /></g><g
           id="g74"
           transform="translate(135.9419,95.6097)"><path
             d="m 0,0 12.014,0 0,-5.017 -5.81,0 0,-3.399 5.248,0 0,-5.017 -5.248,0 0,-3.531 5.842,0 0,-5.017 L 0,-21.981 0,0 z"
             style="fill:#ea5822;fill-opacity:1;fill-rule:nonzero;stroke:none"
             id="path76" /></g><g
           id="g78"
           transform="translate(157.854,82.4413)"><path
             d="M 0,0 1.716,0 0.857,8.152 0,0 z m 9.109,-8.813 -6.469,0 -0.429,3.895 -2.739,0 -0.397,-3.895 -6.469,0 4.357,21.981 7.789,0 4.357,-21.981 z"
             style="fill:#ea5822;fill-opacity:1;fill-rule:nonzero;stroke:none"
             id="path80" /></g><g
           id="g82"
           transform="translate(169.6011,95.6097)"><path
             d="m 0,0 6.072,0 3.829,-9.043 0,9.043 6.007,0 0,-21.981 -6.073,0 -3.828,9.043 0,-9.043 -6.007,0 L 0,0 z"
             style="fill:#ea5822;fill-opacity:1;fill-rule:nonzero;stroke:none"
             id="path84" /></g><g
           id="g86"
           transform="translate(216.1001,73.6288)"><path
             d="m 0,0 -5.776,0 -0.198,8.813 -1.386,-4.39 -5.083,0 -1.386,4.39 -0.198,-8.813 -5.776,0 0.759,21.981 6.007,0 3.136,-10.264 3.134,10.264 6.007,0 L 0,0 z"
             style="fill:#ea5822;fill-opacity:1;fill-rule:nonzero;stroke:none"
             id="path88" /></g><g
           id="g90"
           transform="translate(227.648,79.4706)"><path
             d="m 0,0 0,10.297 c 0,0.793 -0.33,1.288 -1.188,1.288 -0.859,0 -1.189,-0.495 -1.189,-1.288 L -2.377,0 c 0,-0.792 0.33,-1.287 1.189,-1.287 C -0.33,-1.287 0,-0.792 0,0 m -8.581,0.594 0,9.11 c 0,4.092 1.979,6.832 7.393,6.832 5.413,0 7.392,-2.74 7.392,-6.832 l 0,-9.11 c 0,-4.093 -1.979,-6.832 -7.392,-6.832 -5.414,0 -7.393,2.739 -7.393,6.832"
             style="fill:#ea5822;fill-opacity:1;fill-rule:nonzero;stroke:none"
             id="path92" /></g><g
           id="g94"
           transform="translate(237.1499,95.6097)"><path
             d="m 0,0 6.073,0 3.828,-9.043 0,9.043 6.007,0 0,-21.981 -6.073,0 -3.828,9.043 0,-9.043 -6.007,0 L 0,0 z"
             style="fill:#ea5822;fill-opacity:1;fill-rule:nonzero;stroke:none"
             id="path96" /></g><g
           id="g98"
           transform="translate(256.6861,95.6097)"><path
             d="m 0,0 6.073,0 3.828,-9.043 0,9.043 6.007,0 0,-21.981 -6.073,0 -3.828,9.043 0,-9.043 -6.007,0 L 0,0 z"
             style="fill:#ea5822;fill-opacity:1;fill-rule:nonzero;stroke:none"
             id="path100" /></g><g
           id="g102"
           transform="translate(276.2212,95.6097)"><path
             d="m 0,0 12.014,0 0,-5.017 -5.809,0 0,-3.399 5.247,0 0,-5.017 -5.247,0 0,-3.531 5.842,0 0,-5.017 L 0,-21.981 0,0 z"
             style="fill:#ea5822;fill-opacity:1;fill-rule:nonzero;stroke:none"
             id="path104" /></g><g
           id="g106"
           transform="translate(294.2056,90.5272)"><path
             d="m 0,0 -3.598,0 0,5.083 13.401,0 0,-5.083 -3.598,0 0,-16.898 -6.205,0 L 0,0 z"
             style="fill:#ea5822;fill-opacity:1;fill-rule:nonzero;stroke:none"
             id="path108" /></g><g
           id="g110"
           transform="translate(131.0503,43.9374)"><path
             d="m 0,0 c -1.565,0 -3.536,0.27 -5.074,0.864 l 0.297,1.296 c 1.619,-0.486 3.265,-0.729 4.832,-0.729 3.077,0 3.913,0.918 3.913,3.212 0,2.78 -0.027,3.077 -4.022,3.995 -4.345,0.999 -4.832,1.781 -4.832,5.398 0,2.943 1.08,4.481 5.588,4.481 1.566,0 3.428,-0.27 4.643,-0.621 L 5.156,16.547 c -1.323,0.297 -2.997,0.539 -4.4,0.539 -3.563,0 -4.049,-0.863 -4.049,-3.104 0,-2.915 0.081,-3.05 3.86,-3.995 C 5.291,8.8 5.561,8.125 5.561,4.724 5.561,1.782 4.562,0 0,0"
             style="fill:#2b2b2a;fill-opacity:1;fill-rule:nonzero;stroke:none"
             id="path112" /></g><g
           id="g114"
           transform="translate(142.7691,50.308)"><path
             d="M 0,0 7.396,0 3.698,10.959 0,0 z m 7.882,-1.377 -8.367,0 -1.674,-4.724 -1.566,0 6.262,17.977 2.349,0 6.262,-17.977 -1.565,0 -1.701,4.724 z"
             style="fill:#2b2b2a;fill-opacity:1;fill-rule:nonzero;stroke:none"
             id="path116" /></g><path
           d="m 158.483,44.207 -1.593,0 0,17.977 1.593,0 0,-17.977 z"
           style="fill:#2b2b2a;fill-opacity:1;fill-rule:nonzero;stroke:none"
           id="path118" /><g
           id="g120"
           transform="translate(164.4497,60.619)"><path
             d="m 0,0 0,-16.412 -1.512,0 0,17.977 2.322,0 8.529,-16.438 0,16.438 1.512,0 0,-17.977 -2.322,0 L 0,0 z"
             style="fill:#2b2b2a;fill-opacity:1;fill-rule:nonzero;stroke:none"
             id="path122" /></g><g
           id="g124"
           transform="translate(183.4029,60.7538)"><path
             d="m 0,0 -5.534,0 0,1.431 12.66,0 0,-1.431 -5.534,0 0,-16.546 -1.592,0 L 0,0 z"
             style="fill:#2b2b2a;fill-opacity:1;fill-rule:nonzero;stroke:none"
             id="path126" /></g><path
           d="m 190.261,52.44 6.263,0 0,-1.323 -6.263,0 0,1.323 z"
           style="fill:#2b2b2a;fill-opacity:1;fill-rule:nonzero;stroke:none"
           id="path128" /><g
           id="g130"
           transform="translate(203.9497,64.641)"><path
             d="M 0,0 C 1.079,0.648 2.159,1.323 3.293,2.159 L 4.075,0.972 C 3.05,0.243 1.862,-0.513 0.729,-1.107 L 0,0 z m -3.779,-2.457 10.122,0 0,-1.43 -8.53,0 0,-6.667 7.936,0 0,-1.431 -7.936,0 0,-7.018 8.557,0 0,-1.431 -10.149,0 0,17.977 z"
             style="fill:#2b2b2a;fill-opacity:1;fill-rule:nonzero;stroke:none"
             id="path132" /></g><g
           id="g134"
           transform="translate(217.8814,60.7538)"><path
             d="m 0,0 -5.533,0 0,1.431 12.659,0 0,-1.431 -5.533,0 0,-16.546 -1.593,0 L 0,0 z"
             style="fill:#2b2b2a;fill-opacity:1;fill-rule:nonzero;stroke:none"
             id="path136" /></g><path
           d="m 229.302,44.207 -1.592,0 0,17.977 1.592,0 0,-17.977 z"
           style="fill:#2b2b2a;fill-opacity:1;fill-rule:nonzero;stroke:none"
           id="path138" /><g
           id="g140"
           transform="translate(233.7583,62.1844)"><path
             d="m 0,0 10.122,0 0,-1.431 -8.529,0 0,-6.667 7.935,0 0,-1.43 -7.935,0 0,-7.018 8.556,0 0,-1.431 L 0,-17.977 0,0 z"
             style="fill:#2b2b2a;fill-opacity:1;fill-rule:nonzero;stroke:none"
             id="path142" /></g><g
           id="g144"
           transform="translate(249.2017,60.619)"><path
             d="m 0,0 0,-16.412 -1.512,0 0,17.977 2.321,0 8.53,-16.438 0,16.438 1.512,0 0,-17.977 -2.322,0 L 0,0 z"
             style="fill:#2b2b2a;fill-opacity:1;fill-rule:nonzero;stroke:none"
             id="path146" /></g><g
           id="g148"
           transform="translate(265.8872,60.619)"><path
             d="m 0,0 0,-16.412 -1.512,0 0,17.977 2.322,0 8.529,-16.438 0,16.438 1.512,0 0,-17.977 -2.322,0 L 0,0 z"
             style="fill:#2b2b2a;fill-opacity:1;fill-rule:nonzero;stroke:none"
             id="path150" /></g><g
           id="g152"
           transform="translate(281.0611,62.1844)"><path
             d="m 0,0 10.123,0 0,-1.431 -8.53,0 0,-6.667 7.936,0 0,-1.43 -7.936,0 0,-7.018 8.556,0 0,-1.431 L 0,-17.977 0,0 z"
             style="fill:#2b2b2a;fill-opacity:1;fill-rule:nonzero;stroke:none"
             id="path154" /></g></g></g></g></svg>